<?xml version="1.0" encoding="UTF-8" standalone="no"?>
<svg
   version="1.1"
   id="Layer_1"
   x="0px"
   y="0px"
   width="100%"
   viewBox="0 0 352 352"
   enable-background="new 0 0 352 352"
   xml:space="preserve"
   sodipodi:docname="icon.svg"
   inkscape:version="1.4.2 (f4327f4, 2025-05-13)"
   inkscape:export-filename="..\icon\icon256.png"
   inkscape:export-xdpi="69.818184"
   inkscape:export-ydpi="69.818184"
   xmlns:inkscape="http://www.inkscape.org/namespaces/inkscape"
   xmlns:sodipodi="http://sodipodi.sourceforge.net/DTD/sodipodi-0.dtd"
   xmlns:xlink="http://www.w3.org/1999/xlink"
   xmlns="http://www.w3.org/2000/svg"
   xmlns:svg="http://www.w3.org/2000/svg"><defs
   id="defs1"><linearGradient
     id="linearGradient7"
     inkscape:collect="always"><stop
       style="stop-color:#a93e3e;stop-opacity:1;"
       offset="0"
       id="stop7" /><stop
       style="stop-color:#520e0e;stop-opacity:1;"
       offset="1"
       id="stop8" /></linearGradient><linearGradient
     id="linearGradient1"
     inkscape:collect="always"><stop
       style="stop-color:#ffbcbc;stop-opacity:1;"
       offset="0"
       id="stop1" /><stop
       style="stop-color:#ff4e4e;stop-opacity:1;"
       offset="1"
       id="stop2" /></linearGradient><linearGradient
     id="swatch15"><stop
       style="stop-color:#000000;stop-opacity:1;"
       offset="0"
       id="stop15" /></linearGradient><linearGradient
     inkscape:collect="always"
     xlink:href="#linearGradient1"
     id="linearGradient2"
     x1="135.34212"
     y1="84.680885"
     x2="216.65788"
     y2="267.31912"
     gradientUnits="userSpaceOnUse"
     gradientTransform="matrix(0.96645894,-0.09833004,0.09833004,0.96645894,-20.259469,28.422412)" /><linearGradient
     inkscape:collect="always"
     xlink:href="#linearGradient7"
     id="linearGradient8"
     x1="137.96722"
     y1="79.910141"
     x2="223.82071"
     y2="272.74023"
     gradientUnits="userSpaceOnUse" /></defs><sodipodi:namedview
   id="namedview1"
   pagecolor="#505050"
   bordercolor="#eeeeee"
   borderopacity="1"
   inkscape:showpageshadow="0"
   inkscape:pageopacity="0"
   inkscape:pagecheckerboard="0"
   inkscape:deskcolor="#505050"
   inkscape:zoom="3.0642009"
   inkscape:cx="133.64006"
   inkscape:cy="178.34992"
   inkscape:window-width="2560"
   inkscape:window-height="1369"
   inkscape:window-x="-8"
   inkscape:window-y="-8"
   inkscape:window-maximized="1"
   inkscape:current-layer="Layer_1" />

<g
   id="rect3-5"
   inkscape:label="rect3"
   style="opacity:1;fill:url(#linearGradient8);fill-opacity:1"><path
     style="baseline-shift:baseline;display:inline;overflow:visible;vector-effect:none;stroke-linejoin:round;paint-order:markers stroke fill;enable-background:accumulate;stop-color:#000000;stop-opacity:1;fill:url(#linearGradient8);fill-opacity:1"
     d="m 150.11133,8.6972656 c -0.72724,0.1038663 -1.42036,0.2818039 -2.07617,0.515625 l -5.23438,1.8652344 c -5.42933,1.935983 -8.38043,8.164893 -6.44531,13.591797 l 1.17383,3.296875 -13.64063,66.933594 a 7.50075,7.50075 0 0 0 0.94922,4.894531 7.50075,7.50075 0 0 0 -2.78906,4.132808 l -11.92578,58.49805 a 7.50075,7.50075 0 0 0 0.95117,4.89844 7.50075,7.50075 0 0 0 -2.78906,4.1289 l -11.925785,58.5 a 7.50075,7.50075 0 0 0 0.951172,4.89649 7.50075,7.50075 0 0 0 -2.789063,4.12891 l -8.46875,41.54882 c -5.002508,1.63861 -9.099722,5.77914 -10.203125,11.2168 a 7.50075,7.50075 0 0 0 -0.002,0.008 l -0.193359,0.96094 c -1.641414,8.08912 3.627621,16.16932 11.693359,17.92773 61.158184,13.83563 190.466794,33.33204 190.466794,33.33204 a 7.50075,7.50075 0 0 0 8.10547,-10.14454 L 161.54687,15.447266 l 0.0781,0.210937 c -1.69346,-4.748999 -6.6007,-7.6613901 -11.51172,-6.9609374 a 7.50075,7.50075 0 0 0 -0.002,0 z M 151.97852,32.177734 267.18359,327.09375 C 247.58817,324.09601 144.93396,308.29486 90.599609,295.99805 a 7.50075,7.50075 0 0 0 -0.05859,-0.0117 c -0.198896,-0.0434 -0.228214,-0.0904 -0.1875,-0.29102 a 7.50075,7.50075 0 0 0 0.002,-0.006 l 0.193359,-0.96093 c 0.04057,-0.19994 -0.167789,-0.0629 0.03125,-0.0195 a 7.50075,7.50075 0 0 0 0.0059,0 l 0.126954,0.0274 a 7.50075,7.50075 0 0 0 8.939453,-5.83008 l 8.068356,-39.58203 90.66992,18.49805 c 6.4455,1.3149 12.81945,-2.70513 14.41016,-9.0879 1.59092,-6.38421 -2.73925,-13.24235 -9.18164,-14.55664 a 7.50075,7.50075 0 0 0 -0.002,0 l -91.06055,-18.57617 8.92774,-43.80273 57.58789,11.74804 c 6.44402,1.31457 12.81668,-2.70957 14.40625,-9.08789 1.58984,-6.37973 -2.73586,-13.24207 -9.17969,-14.55664 l -57.98047,-11.82812 8.92969,-43.80078 24.5039,4.99804 c 6.44401,1.31456 12.81871,-2.70952 14.40821,-9.08789 1.58995,-6.3798 -2.73593,-13.242074 -9.17969,-14.556637 l -24.89649,-5.078125 z"
     id="path6" /><path
     style="baseline-shift:baseline;display:inline;overflow:visible;vector-effect:none;stroke-linejoin:round;paint-order:markers stroke fill;enable-background:accumulate;stop-color:#000000;stop-opacity:1;fill:url(#linearGradient8);fill-opacity:1"
     d="m 151.17216,16.122403 c -0.20662,0.02951 -0.41376,0.08127 -0.61833,0.154206 l -5.2347,1.866554 c -1.63644,0.583519 -2.48358,2.37109 -1.90006,4.007534 l 1.8774,5.266563 -14.05884,68.980565 32.24298,6.577145 c 2.50263,0.51055 4.01965,2.91709 3.402,5.39545 -0.61762,2.4784 -3.12857,4.06335 -5.6312,3.55282 l -31.85448,-6.49749 -11.92491,58.49754 65.32778,13.3273 c 2.50264,0.51055 4.01963,2.91712 3.40201,5.3955 -0.61764,2.47836 -3.12859,4.06332 -5.63122,3.55279 l -64.93673,-13.24789 -11.92467,58.50004 98.40982,20.0752 c 2.50262,0.51055 4.02211,2.91686 3.40451,5.39523 -0.61766,2.47838 -3.13111,4.0636 -5.63372,3.55306 l -98.01904,-19.99832 -9.566422,46.93157 -0.127069,-0.0276 c -4.132298,-0.90087 -8.136685,1.7113 -8.977761,5.85619 l -0.195652,0.96839 c -0.841064,4.14488 1.808195,8.20777 5.940512,9.10866 60.387492,13.66675 189.989612,33.24403 189.989612,33.24403 L 154.56139,18.176678 c -0.5106,-1.431887 -1.94288,-2.260566 -3.38923,-2.054275 z"
     id="path7" /></g><path
   id="rect3"
   style="fill:url(#linearGradient2);fill-opacity:1;stroke:none;stroke-width:15;stroke-linejoin:round;stroke-dasharray:none;stroke-opacity:1;paint-order:markers stroke fill"
   inkscape:label="rect3"
   d="m 151.17216,16.122402 c -0.20662,0.02951 -0.41376,0.08127 -0.61833,0.154206 l -5.2347,1.866554 c -1.63644,0.583519 -2.48358,2.37109 -1.90006,4.007534 l 1.8774,5.266563 -14.05884,68.980565 32.24298,6.577146 c 2.50263,0.51055 4.01965,2.91709 3.402,5.39545 -0.61762,2.4784 -3.12857,4.06335 -5.6312,3.55282 l -31.85448,-6.49749 -11.92491,58.49754 65.32778,13.3273 c 2.50264,0.51055 4.01963,2.91712 3.40201,5.3955 -0.61764,2.47836 -3.12859,4.06332 -5.63122,3.55279 l -64.93673,-13.24789 -11.92467,58.50004 98.40982,20.0752 c 2.50262,0.51055 4.02211,2.91686 3.40451,5.39523 -0.61766,2.47838 -3.13111,4.0636 -5.63372,3.55306 l -98.01904,-19.99832 -9.566422,46.93157 -0.127069,-0.0276 c -4.132298,-0.90087 -8.136685,1.7113 -8.977761,5.85619 l -0.195652,0.96839 c -0.841064,4.14488 1.808195,8.20777 5.940512,9.10866 60.387492,13.66675 189.989612,33.24403 189.989612,33.24403 L 154.56139,18.176677 c -0.5106,-1.431887 -1.94288,-2.260566 -3.38923,-2.054275 z"
   sodipodi:nodetypes="scsccccsccccsccccscccscccccs" /></svg>
