<?xml version="1.0" encoding="UTF-8" standalone="no"?>
<svg
   version="1.1"
   id="Layer_1"
   x="0px"
   y="0px"
   width="100%"
   viewBox="0 0 352 352"
   enable-background="new 0 0 352 352"
   xml:space="preserve"
   sodipodi:docname="icon.svg"
   inkscape:version="1.4.2 (f4327f4, 2025-05-13)"
   inkscape:export-filename="..\icon\icon256.png"
   inkscape:export-xdpi="69.818184"
   inkscape:export-ydpi="69.818184"
   xmlns:inkscape="http://www.inkscape.org/namespaces/inkscape"
   xmlns:sodipodi="http://sodipodi.sourceforge.net/DTD/sodipodi-0.dtd"
   xmlns="http://www.w3.org/2000/svg"
   xmlns:svg="http://www.w3.org/2000/svg"><defs
   id="defs1"><linearGradient
     id="swatch15"><stop
       style="stop-color:#000000;stop-opacity:1;"
       offset="0"
       id="stop15" /></linearGradient></defs><sodipodi:namedview
   id="namedview1"
   pagecolor="#505050"
   bordercolor="#eeeeee"
   borderopacity="1"
   inkscape:showpageshadow="0"
   inkscape:pageopacity="0"
   inkscape:pagecheckerboard="0"
   inkscape:deskcolor="#505050"
   inkscape:zoom="3.0642009"
   inkscape:cx="138.5353"
   inkscape:cy="175.08643"
   inkscape:window-width="2560"
   inkscape:window-height="1369"
   inkscape:window-x="-8"
   inkscape:window-y="-8"
   inkscape:window-maximized="1"
   inkscape:current-layer="Layer_1" />

<path
   id="rect3"
   style="fill:#800000;fill-opacity:1;stroke:#4f0000;stroke-width:2.5;stroke-linejoin:round;stroke-dasharray:none;stroke-opacity:1;paint-order:markers fill stroke"
   inkscape:label="rect3"
   d="m 161.93164,12.896484 c -0.16144,0.0065 -0.32503,0.03017 -0.48828,0.07031 l -4.17774,1.027344 c -1.30602,0.321168 -2.09851,1.631479 -1.77734,2.9375 l 1.0332,4.203125 -16.23242,52.023437 24.31641,7.591797 c 1.88738,0.58929 2.86713,2.561568 2.19726,4.421875 -0.66986,1.860306 -2.72785,2.884212 -4.61523,2.294922 l -24.02344,-7.5 -13.76758,44.117186 49.26758,15.38282 c 1.88738,0.58928 2.86713,2.56156 2.19727,4.42187 -0.66987,1.86031 -2.72786,2.88421 -4.61524,2.29492 l -48.97265,-15.29101 -13.76758,44.11914 74.2168,23.17187 c 1.88738,0.58929 2.86906,2.56157 2.19922,4.42188 -0.66988,1.86031 -2.72981,2.88421 -4.61719,2.29492 l -73.92188,-23.08203 -11.044919,35.39453 -0.0957,-0.0312 c -3.111885,-1.0176 -6.400522,0.68038 -7.373047,3.80664 l -0.226563,0.73047 c -0.972525,3.12627 0.749443,6.46287 3.861328,7.48047 l 126.128901,41.24414 c 0.0709,0.0232 0.14186,0.0441 0.21289,0.0645 l 5.42774,22.07031 c -24.00285,-7.66584 -46.24563,-14.14808 -48.45313,-13.49218 -8.22003,2.22438 -16.29641,13.74715 -20.36719,14.57422 -4.04537,0.57813 -47.03613,-19.11035 -48.65039,-20.72461 -1.62159,-1.62159 -5.12294,-7.95478 -7.99218,-9.61133 -2.21711,-1.28005 -3.847911,0.4598 -4.238281,2.12305 -0.68437,2.55411 -0.0092,28.78006 2.15039,30.74023 1.8691,1.69647 10.569531,-3.70738 20.232421,3.43945 8.64284,6.39238 7.99855,14.57581 9.48242,15.85352 1.54157,1.23437 123.98633,-1.15791 133.00195,1.25781 0.93258,0.24989 2.4614,0.68469 4.32617,1.20508 -0.58525,2.09775 -0.88264,4.22028 -0.88281,6.30078 -4.3e-4,6.00502 2.47097,11.29287 6.8125,14.57617 h -103.3164 c 6.85862,-4.14647 11.92327,-11.57948 12.79687,-19.68359 h -9.24609 c -0.37696,6.31841 -5.4811,12.1011 -11.65039,13.19922 -6.4466,1.14821 -11.67255,-3.22686 -11.67188,-9.77149 1.2e-4,-1.13172 0.15995,-2.28602 0.47461,-3.42773 h -9.24805 c -0.3865,1.70839 -0.58186,3.42338 -0.58203,5.10937 1.4e-4,6.24982 2.627,11.4054 6.81446,14.57422 h -35.67188 c 7.83417,-4.72965 12.9364,-13.44495 12.93555,-22.0957 -5.4e-4,-10.7546 -7.82148,-18.44521 -18.2832,-17.97852 -0.9098,0.0404 -1.82647,0.1428 -2.744143,0.30664 -11.613403,2.07627 -21.02776,13.35496 -21.027343,25.19141 -2.2e-5,6.00537 2.472111,11.29328 6.814453,14.57617 H 37.138672 c -0.926782,0 -1.673828,0.7451 -1.673828,1.67188 0,0.92678 0.747046,1.67383 1.673828,1.67383 h 56.791016 c 1.150395,0.10433 2.324532,0.10433 3.509765,0 h 54.400387 c 1.16301,0.10876 2.36447,0.11134 3.59766,0 h 121.6582 c 0.0846,0 0.16888,-0.006 0.25,-0.0176 1.81304,0.18237 3.68454,0.1042 5.56446,-0.23242 11.6134,-2.07627 21.02776,-13.35497 21.02734,-25.19141 -5.4e-4,-10.7546 -7.82148,-18.44521 -18.2832,-17.97852 -0.9098,0.0404 -1.82647,0.1428 -2.74414,0.30664 -5.4744,0.97853 -10.73304,4.09448 -14.65821,8.68555 -9.57763,-3.468 -22.04075,-7.70684 -34.73242,-11.85156 L 164.38086,14.744141 c -0.28102,-1.142769 -1.31916,-1.8932 -2.44922,-1.847657 z M 131.53142,263.06267 c -0.54715,0.0149 -1.09847,0.0645 -1.6504,0.14843 -6.73627,1.02968 -12.28939,6.88517 -12.62695,13.31446 v 0.002 l 18.60803,8.35185 c 1.84947,-1.28413 3.69052,-3.18035 4.80213,-5.07255 l 12.40039,1.69531 c 1.27579,0.17445 2.44454,-0.71251 2.61914,-1.98828 l 0.43945,-3.2168 c 0.1746,-1.27578 -0.71248,-2.44468 -1.98828,-2.61914 l -11.67383,-1.5957 c -0.58421,-5.44692 -5.11068,-9.18231 -10.92968,-9.01953 z m -30.70525,45.40413 c 5.80688,-0.25817 10.14806,3.99361 10.14844,9.93945 3.8e-4,6.54422 -5.22549,12.78011 -11.671876,13.92773 -6.446592,1.14821 -11.672543,-3.22686 -11.671875,-9.77148 6.83e-4,-6.54365 5.226239,-12.77829 11.671875,-13.92578 0.509447,-0.0907 1.018346,-0.14748 1.523436,-0.16992 z m 183.60742,0 c 5.80688,-0.25817 10.14806,3.99361 10.14844,9.93945 3.8e-4,6.54422 -5.22549,12.7801 -11.67187,13.92773 -6.44659,1.14821 -11.67255,-3.22686 -11.67188,-9.77148 2.4e-4,-0.76523 0.0735,-1.54165 0.21875,-2.31836 5.30504,1.29486 10.54619,2.30443 12.53516,1.77148 1.33892,-0.35876 4.3397,-3.97655 1.71679,-7.01562 -0.66973,-0.66973 -3.73102,-2.04744 -8.43554,-3.88672 1.72624,-1.2737 3.66544,-2.12572 5.63672,-2.47656 0.50944,-0.0907 1.01834,-0.14748 1.52343,-0.16992 z"
   sodipodi:nodetypes="scsccccsccccsccccscccsccccccccsscsscscscccccsccccccccccsssccccsccccccccscccccccccccccccssccscccsccscs" /></svg>
